{"title":"18+ Fist2Fist: 2 Weapon Of Choice 2014 UNRATED Movies HDRip â˜»rDX","uid":11694559,"size":739861696,"categoryP":"video","categoryS":"movies","magnet":"?xt=urn:btih:868e5c20b489d06bdb8cb057b47e2d53ec286f90&amp;dn=18%2B+Fist2Fist%3A+2+Weapon+Of+Choice+2014+UNRATED+Movies+HDRip+%E2%98%BBrDX&amp;tr=udp%3A%2F%2Ftracker.openbittorrent.com%3A80&amp;tr=udp%3A%2F%2Fopen.demonii.com%3A1337&amp;tr=udp%3A%2F%2Ftracker.coppersurfer.tk%3A6969&amp;tr=udp%3A%2F%2Fexodus.desync.com%3A6969","seeders":0,"leechers":1,"uploader":"basicssom","files":2,"time":1423665080,"description":"----------------------------------------------------------------\n18+ Fist2Fist: 2 Weapon Of Choice 2014 UNRATED Movies HDRip XViD AAC +Sample â˜»rDXâ˜»\n\nSCREEN SHOTS &amp; POSTER:\n &lt;a href=&quot;\nhttp://istoreimg.co.nr/2015/2/Fist2Fist/11.html&quot; rel=&quot;nofollow&quot; target=&quot;_NEW&quot;&gt;\nhttp://istoreimg.co.nr/2015/2/Fist2Fist/11.html&lt;/a&gt; &lt;a href=&quot;\nhttp://istoreimg.co.nr/2015/2/Fist2Fist/1.html&quot; rel=&quot;nofollow&quot; target=&quot;_NEW&quot;&gt;\nhttp://istoreimg.co.nr/2015/2/Fist2Fist/1.html&lt;/a&gt; &lt;a href=&quot;\nhttp://istoreimg.co.nr/2015/2/Fist2Fist/2.html&quot; rel=&quot;nofollow&quot; target=&quot;_NEW&quot;&gt;\nhttp://istoreimg.co.nr/2015/2/Fist2Fist/2.html&lt;/a&gt; &lt;a href=&quot;\nhttp://istoreimg.co.nr/2015/2/Fist2Fist/3.html&quot; rel=&quot;nofollow&quot; target=&quot;_NEW&quot;&gt;\nhttp://istoreimg.co.nr/2015/2/Fist2Fist/3.html&lt;/a&gt; &lt;a href=&quot;\nhttp://istoreimg.co.nr/2015/2/Fist2Fist/4.html&quot; rel=&quot;nofollow&quot; target=&quot;_NEW&quot;&gt;\nhttp://istoreimg.co.nr/2015/2/Fist2Fist/4.html&lt;/a&gt; &lt;a href=&quot;\nhttp://istoreimg.co.nr/2015/2/Fist2Fist/5.html&quot; rel=&quot;nofollow&quot; target=&quot;_NEW&quot;&gt;\nhttp://istoreimg.co.nr/2015/2/Fist2Fist/5.html&lt;/a&gt; &lt;a href=&quot;\nhttp://istoreimg.co.nr/2015/2/Fist2Fist/6.html&quot; rel=&quot;nofollow&quot; target=&quot;_NEW&quot;&gt;\nhttp://istoreimg.co.nr/2015/2/Fist2Fist/6.html&lt;/a&gt; &lt;a href=&quot;\nhttp://istoreimg.co.nr/2015/2/Fist2Fist/7.html&quot; rel=&quot;nofollow&quot; target=&quot;_NEW&quot;&gt;\nhttp://istoreimg.co.nr/2015/2/Fist2Fist/7.html&lt;/a&gt; &lt;a href=&quot;\nhttp://istoreimg.co.nr/2015/2/Fist2Fist/8.html&quot; rel=&quot;nofollow&quot; target=&quot;_NEW&quot;&gt;\nhttp://istoreimg.co.nr/2015/2/Fist2Fist/8.html&lt;/a&gt; &lt;a href=&quot;\nhttp://istoreimg.co.nr/2015/2/Fist2Fist/9.html&quot; rel=&quot;nofollow&quot; target=&quot;_NEW&quot;&gt;\nhttp://istoreimg.co.nr/2015/2/Fist2Fist/9.html&lt;/a&gt; &lt;a href=&quot;\nhttp://istoreimg.co.nr/2015/2/Fist2Fist/10.html&quot; rel=&quot;nofollow&quot; target=&quot;_NEW&quot;&gt;\nhttp://istoreimg.co.nr/2015/2/Fist2Fist/10.html&lt;/a&gt;\n\nFormat                                   : Matroska\nFormat version                           : Version 4 / Version 2\nFile size                                : 693 MiB\nDuration                                 : 1h 40mn\nOverall bit rate                         : 965 Kbps\nMovie name                               : 18+ Fist2Fist: 2 Weapon Of Choice 2014 UNRATED Movies HDRip XViD AAC ~ rDX ~\n\nVideo\nID                                       : 1\nFormat                                   : MPEG-4 Visual\nFormat profile                           : Advanced Simple@L5\nFormat settings, BVOP                    : Yes\nFormat settings, QPel                    : No\nFormat settings, GMC                     : No warppoints\nFormat settings, Matrix                  : Default (H.263)\nCodec ID                                 : V_MS/VFW/FOURCC / XVID\nCodec ID/Hint                            : XviD\nDuration                                 : 1h 40mn\nBit rate                                 : 817 Kbps\nWidth                                    : 640 pixels\nHeight                                   : 352 pixels\nDisplay aspect ratio                     : 16:9\nFrame rate mode                          : Constant\nFrame rate                               : 23.976 fps\nColor space                              : YUV\nChroma subsampling                       : 4:2:0\nBit depth                                : 8 bits\nScan type                                : Progressive\nCompression mode                         : Lossy\nBits/(Pixel*Frame)                       : 0.151\nStream size                              : 587 MiB (85%)\nTitle                                    : ~ rDX ~\nWriting library                          : XviD 64\nDefault                                  : Yes\nForced                                   : No\n\nAudio\nID                                       : 2\nFormat                                   : MPEG Audio\nFormat version                           : Version 1\nFormat profile                           : Layer 3\nMode                                     : Joint stereo\nMode extension                           : MS Stereo\nCodec ID                                 : A_MPEG/L3\nCodec ID/Hint                            : MP3\nDuration                                 : 1h 40mn\nBit rate mode                            : Constant\nBit rate                                 : 128 Kbps\nChannel(s)                               : 2 channels\nSampling rate                            : 48.0 KHz\nCompression mode                         : Lossy\nStream size                              : 91.9 MiB (13%)\nTitle                                    : ~ rDX ~\nWriting library                          : LAME3.99r\nEncoding settings                        : -m j -V 4 -q 3 -lowpass 17 -b 128\nDefault                                  : Yes\nForced                                   : No","torrent":{"xt":"urn:btih:868e5c20b489d06bdb8cb057b47e2d53ec286f90","amp;dn":"18%2B+Fist2Fist%3A+2+Weapon+Of+Choice+2014+UNRATED+Movies+HDRip+%E2%98%BBrDX","amp;tr":["udp%3A%2F%2Ftracker.openbittorrent.com%3A80","udp%3A%2F%2Fopen.demonii.com%3A1337","udp%3A%2F%2Ftracker.coppersurfer.tk%3A6969","udp%3A%2F%2Fexodus.desync.com%3A6969"],"infoHash":"868e5c20b489d06bdb8cb057b47e2d53ec286f90","infoHashBuffer":{"type":"Buffer","data":[134,142,92,32,180,137,208,107,219,140,176,87,180,126,45,83,236,40,111,144]},"announce":[],"urlList":[]}}